<svg width="41" height="11" viewBox="0 0 41 11" fill="none" xmlns="http://www.w3.org/2000/svg">
<path fill-rule="evenodd" clip-rule="evenodd" d="M5.29758 0.683207L0.869141 10.7717H6.17125L6.82796 9.16374H8.32998L8.98836 10.7717H14.8237V9.54425L15.3435 10.7717H18.3626L18.8825 9.51838V10.7717H31.0196L32.4957 9.20546L33.8776 10.7717L40.1109 10.7851L35.6683 5.75584L40.1117 0.682373H33.9743L32.5374 2.2211L31.199 0.683207H17.9954L16.8622 3.2867L15.7015 0.683207H10.4111V1.86813L9.82198 0.683207H5.29758ZM6.32395 2.11596H8.90825L11.8455 8.9568V2.11596H14.6768L16.9465 7.02087L19.0368 2.11596H21.8539V9.35483H20.14L20.1258 3.68223L17.6266 9.35483H16.0937L13.5812 3.68306V9.35567H10.0548L9.38639 7.73266H5.77488L5.10732 9.35483H3.21812L6.32395 2.11596ZM30.392 2.11596H23.4219V9.35066H30.2836L32.4949 6.95328L34.6269 9.35066H36.8549L33.6172 5.75417L36.8549 2.11596H34.7237L32.5232 4.4858L30.392 2.11596ZM7.58064 3.34094L6.39071 6.23148H8.7689L7.58064 3.34094ZM25.1433 4.93641V3.61297H29.4925L31.3901 5.72663L29.4082 7.85198H25.1433V6.40838H28.9459V4.93557L25.1433 4.93641Z" fill="#1F72CD"/>
</svg>
