<svg width="18" height="14" viewBox="0 0 18 14" fill="none" xmlns="http://www.w3.org/2000/svg">
<path d="M17.125 0.75V3.875C17.125 4.04076 17.0592 4.19973 16.9419 4.31694C16.8247 4.43415 16.6658 4.5 16.5 4.5C16.3342 4.5 16.1753 4.43415 16.0581 4.31694C15.9408 4.19973 15.875 4.04076 15.875 3.875V1.375H13.375C13.2092 1.375 13.0503 1.30915 12.9331 1.19194C12.8158 1.07473 12.75 0.91576 12.75 0.75C12.75 0.58424 12.8158 0.425269 12.9331 0.308058C13.0503 0.190848 13.2092 0.125 13.375 0.125H16.5C16.6658 0.125 16.8247 0.190848 16.9419 0.308058C17.0592 0.425269 17.125 0.58424 17.125 0.75ZM4.625 12.625H2.125V10.125C2.125 9.95924 2.05915 9.80027 1.94194 9.68306C1.82473 9.56585 1.66576 9.5 1.5 9.5C1.33424 9.5 1.17527 9.56585 1.05806 9.68306C0.940848 9.80027 0.875 9.95924 0.875 10.125V13.25C0.875 13.4158 0.940848 13.5747 1.05806 13.6919C1.17527 13.8092 1.33424 13.875 1.5 13.875H4.625C4.79076 13.875 4.94973 13.8092 5.06694 13.6919C5.18415 13.5747 5.25 13.4158 5.25 13.25C5.25 13.0842 5.18415 12.9253 5.06694 12.8081C4.94973 12.6908 4.79076 12.625 4.625 12.625ZM16.5 9.5C16.3342 9.5 16.1753 9.56585 16.0581 9.68306C15.9408 9.80027 15.875 9.95924 15.875 10.125V12.625H13.375C13.2092 12.625 13.0503 12.6908 12.9331 12.8081C12.8158 12.9253 12.75 13.0842 12.75 13.25C12.75 13.4158 12.8158 13.5747 12.9331 13.6919C13.0503 13.8092 13.2092 13.875 13.375 13.875H16.5C16.6658 13.875 16.8247 13.8092 16.9419 13.6919C17.0592 13.5747 17.125 13.4158 17.125 13.25V10.125C17.125 9.95924 17.0592 9.80027 16.9419 9.68306C16.8247 9.56585 16.6658 9.5 16.5 9.5ZM1.5 4.5C1.66576 4.5 1.82473 4.43415 1.94194 4.31694C2.05915 4.19973 2.125 4.04076 2.125 3.875V1.375H4.625C4.79076 1.375 4.94973 1.30915 5.06694 1.19194C5.18415 1.07473 5.25 0.91576 5.25 0.75C5.25 0.58424 5.18415 0.425269 5.06694 0.308058C4.94973 0.190848 4.79076 0.125 4.625 0.125H1.5C1.33424 0.125 1.17527 0.190848 1.05806 0.308058C0.940848 0.425269 0.875 0.58424 0.875 0.75V3.875C0.875 4.04076 0.940848 4.19973 1.05806 4.31694C1.17527 4.43415 1.33424 4.5 1.5 4.5ZM5.25 3.25C5.08424 3.25 4.92527 3.31585 4.80806 3.43306C4.69085 3.55027 4.625 3.70924 4.625 3.875V10.125C4.625 10.2908 4.69085 10.4497 4.80806 10.5669C4.92527 10.6842 5.08424 10.75 5.25 10.75C5.41576 10.75 5.57473 10.6842 5.69194 10.5669C5.80915 10.4497 5.875 10.2908 5.875 10.125V3.875C5.875 3.70924 5.80915 3.55027 5.69194 3.43306C5.57473 3.31585 5.41576 3.25 5.25 3.25ZM13.375 10.125V3.875C13.375 3.70924 13.3092 3.55027 13.1919 3.43306C13.0747 3.31585 12.9158 3.25 12.75 3.25C12.5842 3.25 12.4253 3.31585 12.3081 3.43306C12.1908 3.55027 12.125 3.70924 12.125 3.875V10.125C12.125 10.2908 12.1908 10.4497 12.3081 10.5669C12.4253 10.6842 12.5842 10.75 12.75 10.75C12.9158 10.75 13.0747 10.6842 13.1919 10.5669C13.3092 10.4497 13.375 10.2908 13.375 10.125ZM10.25 3.25C10.0842 3.25 9.92527 3.31585 9.80806 3.43306C9.69085 3.55027 9.625 3.70924 9.625 3.875V10.125C9.625 10.2908 9.69085 10.4497 9.80806 10.5669C9.92527 10.6842 10.0842 10.75 10.25 10.75C10.4158 10.75 10.5747 10.6842 10.6919 10.5669C10.8092 10.4497 10.875 10.2908 10.875 10.125V3.875C10.875 3.70924 10.8092 3.55027 10.6919 3.43306C10.5747 3.31585 10.4158 3.25 10.25 3.25ZM7.75 3.25C7.58424 3.25 7.42527 3.31585 7.30806 3.43306C7.19085 3.55027 7.125 3.70924 7.125 3.875V10.125C7.125 10.2908 7.19085 10.4497 7.30806 10.5669C7.42527 10.6842 7.58424 10.75 7.75 10.75C7.91576 10.75 8.07473 10.6842 8.19194 10.5669C8.30915 10.4497 8.375 10.2908 8.375 10.125V3.875C8.375 3.70924 8.30915 3.55027 8.19194 3.43306C8.07473 3.31585 7.91576 3.25 7.75 3.25Z" fill="#191F2D"/>
</svg>
