<svg width="37" height="15" viewBox="0 0 37 15" fill="none" xmlns="http://www.w3.org/2000/svg">
<path d="M5.38373 3.8102C5.78427 3.6792 6.21234 3.60743 6.65794 3.60743C8.60388 3.60743 10.2269 4.96342 10.5991 6.765L13.3561 6.21343C12.7236 3.15182 9.9657 0.8479 6.65794 0.8479C5.90025 0.8479 5.17261 0.968896 4.4917 1.19169L5.38373 3.8102Z" fill="#FECA2F"/>
<path d="M2.10182 12.6819L3.75237 10.5498C3.01555 9.80467 2.55076 8.71655 2.55076 7.50409C2.55076 6.29163 3.01555 5.2035 3.75237 4.45834L2.10015 2.32715C0.848473 3.59385 0.059082 5.44299 0.059082 7.50325C0.059082 9.56352 0.849308 11.4152 2.10182 12.6819Z" fill="#1BA7DE"/>
<path d="M10.5992 8.24438C10.2262 10.0451 8.60481 11.3986 6.66054 11.3986C6.22691 11.3992 5.79596 11.3307 5.38383 11.1958L4.49097 13.816C5.17271 14.0397 5.90203 14.1606 6.66054 14.1606C9.96497 14.1606 12.7212 11.8584 13.3562 8.79846L10.5992 8.24438Z" fill="#EC412A"/>
<path fill-rule="evenodd" clip-rule="evenodd" d="M26.6221 2.32715V9.9023L27.9814 10.4472L27.3381 11.9409L25.9938 11.401C25.7255 11.2894 25.4954 11.1025 25.3312 10.8628C25.1818 10.64 25.0717 10.3345 25.0717 9.92316V2.32798L26.6221 2.32715ZM16.3116 7.9572C16.345 5.79096 18.19 4.06197 20.4288 4.09535C22.3288 4.12372 23.9035 5.41045 24.3173 7.12274L16.9675 10.1601C16.527 9.511 16.2979 8.74157 16.3116 7.9572ZM17.993 8.26094C17.9819 8.16875 17.9771 8.0759 17.9788 7.98306C17.9997 6.70635 19.0853 5.68832 20.4046 5.70918C21.1222 5.71836 21.7598 6.03629 22.1903 6.52861L17.993 8.26094ZM22.036 9.66782C21.6475 10.0349 21.1487 10.2635 20.6171 10.3183C20.0854 10.3731 19.5505 10.2509 19.0953 9.97073L18.2075 11.3392C18.8401 11.7245 19.5647 11.9326 20.3053 11.9417C21.3792 11.9618 22.4184 11.5611 23.2008 10.8252L22.036 9.66782ZM32.2797 5.70918C32.0138 5.71029 31.7615 5.74979 31.5228 5.82767L30.9938 4.29479C31.409 4.16127 31.8427 4.09369 32.2789 4.09452C34.2432 4.09452 35.8812 5.44299 36.2567 7.23373L34.6195 7.55666C34.3984 6.50275 33.4346 5.70918 32.2797 5.70918ZM29.5911 10.957L30.6976 9.7471C30.4458 9.5345 30.2434 9.26963 30.1043 8.97091C29.9653 8.67219 29.8929 8.34678 29.8923 8.01728C29.8923 7.32969 30.2036 6.71219 30.6967 6.28913L29.5902 5.07917C29.163 5.44057 28.8193 5.89048 28.583 6.39778C28.3467 6.90508 28.2235 7.45765 28.2217 8.01728C28.2217 9.18801 28.7508 10.2378 29.5911 10.957ZM32.2797 10.327C33.4337 10.327 34.3975 9.53431 34.6187 8.48123L36.2558 8.80583C35.8787 10.5949 34.2415 11.9417 32.2797 11.9417C31.8291 11.9417 31.396 11.8708 30.9913 11.7398L31.522 10.2077C31.7598 10.2845 32.0143 10.327 32.2797 10.327Z" fill="#191F2D"/>
</svg>
