<svg width="34" height="15" viewBox="0 0 34 15" fill="none" xmlns="http://www.w3.org/2000/svg">
<path fill-rule="evenodd" clip-rule="evenodd" d="M14.0901 14.5538L0.133057 14.5579V14.5245C0.133057 14.5062 0.154752 14.3869 0.182289 14.2584L0.275748 13.8061L0.368372 13.3505L0.466837 12.869C0.495208 12.7346 0.537766 12.5219 0.5628 12.3959C0.587833 12.2699 0.629555 12.0654 0.656258 11.9402C0.722796 11.6223 0.787884 11.3041 0.85152 10.9856L0.937468 10.5717C0.960833 10.4649 0.989204 10.3206 1.00256 10.2505C1.01507 10.1812 1.05679 9.97511 1.09434 9.79404C1.13356 9.61213 1.17445 9.40769 1.1878 9.33759C1.20116 9.26833 1.24371 9.06306 1.28126 8.88198C1.31881 8.70091 1.36054 8.49563 1.37389 8.42554C1.38724 8.35628 1.42896 8.151 1.46735 7.96993C1.52589 7.69738 1.58152 7.42422 1.63424 7.15049L1.7544 6.56805C1.79195 6.38697 1.85703 6.07155 1.89792 5.86711L2.00724 5.32638L2.08317 4.95422L2.17579 4.50695L2.27676 4.01713C2.30514 3.88278 2.34686 3.67333 2.37189 3.55234L2.46368 3.10507C2.49038 2.9799 2.53544 2.75877 2.56465 2.61525C2.59385 2.47089 2.64309 2.25143 2.67313 2.12543C2.70317 1.99942 2.74823 1.84839 2.77076 1.78747C2.79246 1.72739 2.8542 1.59555 2.90677 1.49708L3.00357 1.31601L3.09119 1.20169C3.15135 1.12524 3.21483 1.05146 3.28144 0.980558C3.40669 0.853833 3.54297 0.738502 3.68866 0.635929C3.73539 0.60422 3.82634 0.548311 3.89143 0.511596C3.95652 0.47488 4.04747 0.428151 4.0942 0.40562C4.37968 0.27565 4.67972 0.180399 4.9879 0.121907C5.10806 0.0985419 5.29831 0.0668327 5.41096 0.0509781L5.61457 0.024276L19.58 0.0184349L33.5462 0.0134277V0.0468058C33.5462 0.0651637 33.5236 0.184491 33.4961 0.312996L33.3017 1.24675L33.2074 1.70319L33.1073 2.19302L33.0138 2.64946C32.9888 2.77463 32.947 2.9799 32.9203 3.10507C32.8936 3.23024 32.8536 3.42801 32.8302 3.54399L32.7359 4.00878L32.635 4.49861L32.5415 4.94587L32.4472 5.41066C32.4188 5.55085 32.3738 5.77115 32.3462 5.90049C32.3179 6.03066 32.2778 6.22843 32.2544 6.33941L32.161 6.80503C32.1318 6.94856 32.0884 7.158 32.0667 7.26899L31.9749 7.70874L31.8731 8.20691L31.7796 8.66252L31.6879 9.10979L31.5877 9.59961L31.4934 10.0552L31.3983 10.52L31.2982 11.0098L31.2064 11.4571L31.1129 11.9135C31.0845 12.0529 31.0387 12.2724 31.0103 12.4025L30.9602 12.6362L30.8993 12.7989C30.8659 12.8882 30.8159 13.0075 30.7883 13.0626C30.7146 13.2036 30.6292 13.3381 30.533 13.4648C30.4703 13.5368 30.4052 13.6067 30.3377 13.6742L30.1959 13.8178L30.0582 13.9146C29.9831 13.968 29.9013 14.023 29.8779 14.0356L29.676 14.139C29.5863 14.1835 29.495 14.2247 29.4023 14.2625C29.1719 14.3466 28.935 14.4113 28.6938 14.4561C28.5597 14.4823 28.4247 14.5037 28.2891 14.5204L28.0471 14.5487L14.0901 14.5538Z" fill="#B7232C"/>
<path fill-rule="evenodd" clip-rule="evenodd" d="M7.86846 4.58124L7.92187 4.35177H6.90384L6.88131 4.50781C6.87546 4.5512 6.8546 4.67303 6.83708 4.77984L6.82957 4.8224L6.76281 5.20207C6.70293 5.54367 6.64619 5.88581 6.59258 6.22845L6.57506 6.3436L5.42686 6.3678L4.9145 6.35529L4.49477 6.34277L4.50312 6.2952C4.51647 6.2176 4.5415 6.08159 4.55986 5.9948C4.57738 5.90552 4.6116 5.73028 4.63496 5.60428C4.65916 5.47744 4.68586 5.32056 4.69588 5.25381C4.70422 5.19039 4.72258 5.08442 4.73676 5.01849C4.75095 4.9509 4.77849 4.80738 4.79684 4.70057C4.81353 4.60377 4.83189 4.51448 4.8369 4.49696L4.89281 4.35177H3.86643L3.82638 4.57039C3.81219 4.65384 3.793 4.76983 3.78382 4.83158L3.71456 5.26048L3.52848 6.42705C3.50011 6.60312 3.45338 6.87598 3.42584 7.03369L3.33405 7.53103L3.24059 8.02085C3.21139 8.17439 3.16883 8.38968 3.1463 8.50066C3.12293 8.61331 3.09707 8.74265 3.08872 8.79022C3.08038 8.83611 3.05534 8.96962 3.03114 9.08561C3.01446 9.16906 2.98608 9.31425 2.98608 9.34429V9.45778H3.96823L4.17184 8.22029L4.2678 7.65453L4.35125 7.17555L4.38463 7.00032H6.4574L6.45323 7.01951L6.38397 7.3875L6.28133 7.94575L6.18871 8.44392C6.16618 8.55907 6.12029 8.80357 6.08858 8.98464C6.07022 9.08561 6.02683 9.32343 6.02683 9.35013L6.0285 9.45861H7.01148L7.04152 9.28004C7.05237 9.22163 7.06822 9.11565 7.07824 9.04639C7.08825 8.97713 7.11161 8.82944 7.12997 8.71845L7.21342 8.22863L7.31522 7.62782L7.40868 7.07124L7.50047 6.56557L7.79002 4.98595C7.81673 4.82907 7.85261 4.648 7.86763 4.58124M8.83309 7.21644L8.92488 6.73496C8.94824 6.60979 8.99414 6.37197 9.02752 6.20592C9.06089 6.03485 9.0876 5.9197 9.09427 5.90218L9.17688 5.76867L8.21059 5.77951L8.16886 6.07324C8.15217 6.19424 8.11629 6.43205 8.08792 6.60395L7.99363 7.18807C7.96943 7.33577 7.92771 7.57358 7.90184 7.71711L7.80838 8.20693C7.75062 8.51035 7.69165 8.81354 7.63148 9.11649C7.61867 9.18153 7.60477 9.24635 7.58976 9.31091L7.5497 9.45778H8.45007L8.48095 9.376C8.49202 9.33805 8.49764 9.29871 8.49764 9.25918C8.49764 9.23665 8.51433 9.09563 8.54771 8.89786L8.64951 8.27119L8.74297 7.71294C8.76466 7.57943 8.80555 7.35579 8.83309 7.21644ZM8.60195 5.32724L8.85812 5.33558L9.03503 5.27634L9.21193 5.10945L9.30789 4.88248L9.31624 4.54119L9.23613 4.40767L9.06924 4.29419H8.7897L8.58275 4.37847L8.45425 4.50614L8.35829 4.71726L8.33575 5.05938L8.43339 5.25047L8.60195 5.32724Z" fill="#F5F5F5"/>
<path d="M11.7547 6.90499L11.7405 7.51747L11.6971 7.70773C11.6754 7.8062 11.6303 7.9614 11.5986 8.05236L11.5469 8.2059L11.4759 8.33941C11.4372 8.41182 11.3948 8.48228 11.3491 8.55053C11.2885 8.63602 11.2124 8.70934 11.1246 8.76665L11.0737 8.80504L10.8117 8.89432L10.5614 8.91101L10.3878 8.88097L10.2243 8.8067L10.1158 8.70323L10.0849 8.63481C10.0642 8.58263 10.0461 8.52943 10.0307 8.47543L10.0132 8.39615L10.0273 8.12913L10.0716 7.90049C10.0958 7.77532 10.1383 7.53917 10.1667 7.37478L10.2635 6.84741L10.3019 6.6438L10.3745 6.58289C10.4245 6.54117 10.5046 6.48526 10.5497 6.46022L10.6223 6.416L10.8393 6.34674L11.1296 6.33005L11.3474 6.37344L11.5085 6.44771L11.6345 6.57288L11.6679 6.64047C11.6871 6.67718 11.7154 6.75562 11.7296 6.80903L11.7547 6.90499ZM12.5883 6.41767L12.474 6.18903L12.2386 5.93535L11.9349 5.77681L11.6337 5.70421L11.3299 5.68418L10.9978 5.7234L10.7224 5.796L10.609 5.84774C10.5365 5.88242 10.4658 5.92057 10.397 5.96206L10.3519 5.99293C10.3603 5.9462 10.3703 5.88862 10.3711 5.86025L10.3736 5.77097H9.59092L9.52416 6.18652C9.49496 6.37428 9.44739 6.66466 9.41986 6.83156L9.23378 7.93804C9.20624 8.10076 9.16034 8.35777 9.13281 8.51214L8.94756 9.51599L8.84409 10.0734C8.79327 10.3442 8.74014 10.6146 8.68471 10.8845L8.64966 11.0297H9.54586L9.57924 10.9462C9.58991 10.912 9.59498 10.8762 9.59426 10.8403C9.59426 10.8219 9.60344 10.7335 9.61929 10.63L9.78618 9.5719C9.80454 9.46175 9.82457 9.3274 9.83792 9.23394L10.0132 9.41001L10.2735 9.52183L10.5856 9.56355L10.9502 9.54019L11.3424 9.43755L11.4434 9.39165C11.5035 9.36412 11.6045 9.30821 11.6745 9.26148L11.8064 9.17303L11.9165 9.06371C11.9869 8.99263 12.0529 8.9174 12.1143 8.83841C12.1522 8.79593 12.1837 8.74814 12.2078 8.69656L12.2436 8.63981C12.2779 8.58975 12.3354 8.47292 12.3721 8.38531C12.4122 8.29268 12.4748 8.12245 12.5132 8.00646L12.5808 7.79284L12.615 7.61761C12.6342 7.51748 12.6592 7.35476 12.67 7.25629L12.6892 7.06186L12.665 6.74477L12.5883 6.41767ZM15.3128 6.74561L15.2861 6.9876H14.5134C14.1913 6.9876 13.9242 6.98593 13.7824 6.98343L13.789 6.96507C13.8132 6.89998 13.8541 6.80318 13.8808 6.74978L13.9242 6.66049L14.1278 6.45939L14.2238 6.4135C14.2864 6.38345 14.359 6.35508 14.3848 6.34841C14.4579 6.33515 14.5318 6.32679 14.606 6.32337L14.767 6.31336L15.0048 6.3434L15.1659 6.41683L15.2059 6.45939C15.2282 6.48536 15.2488 6.51267 15.2677 6.54117L15.2844 6.57371L15.3128 6.74561ZM16.1489 6.86243L16.1497 6.70722L16.1489 6.53366L16.0946 6.30251L16.0412 6.20238C16.0104 6.14995 15.9755 6.10001 15.9369 6.05301C15.8985 6.01004 15.8557 5.97117 15.8093 5.93702C15.7598 5.90342 15.7085 5.8725 15.6557 5.8444L15.5506 5.79266L15.2443 5.71923L14.8655 5.68335L14.5175 5.70671L14.097 5.79016L13.9693 5.84023C13.8967 5.86943 13.7857 5.922 13.7223 5.95788C13.6536 5.99711 13.5878 6.04117 13.5254 6.08973C13.3273 6.2447 13.1679 6.4435 13.0597 6.67051C13.0264 6.73726 12.9821 6.82989 12.9613 6.87912C12.8934 7.04851 12.8376 7.22252 12.7944 7.39982C12.7727 7.49411 12.741 7.65015 12.726 7.74611L12.6984 7.92969L12.7009 8.4529L12.726 8.56221C12.741 8.62646 12.7693 8.72076 12.7894 8.77666C12.8102 8.83174 12.8478 8.91101 12.8728 8.95774C12.9004 9.0053 12.9546 9.07873 12.998 9.12463C13.0397 9.16719 13.1123 9.23144 13.1632 9.27066C13.2149 9.30904 13.3026 9.35995 13.3635 9.38748L13.4786 9.43838L13.6172 9.47176C13.6964 9.49095 13.8149 9.51348 13.8825 9.52183C13.9493 9.53017 14.0861 9.53852 14.1954 9.53935L14.3848 9.54186L14.5751 9.52517C14.7005 9.51307 14.8257 9.4986 14.9506 9.48177C15.0616 9.46592 15.241 9.43254 15.3503 9.40918L15.6148 9.35077L15.634 9.21392C15.639 9.17219 15.6624 9.0512 15.6841 8.94355L15.7258 8.74328L15.7175 8.67736L15.639 8.60226L15.5222 8.65984C15.4471 8.69137 15.3705 8.71922 15.2927 8.74328L15.1258 8.79919L14.7712 8.87012L14.1929 8.87096L14.1053 8.84342C14.0474 8.82375 13.9905 8.80091 13.9351 8.77499L13.865 8.74078L13.7507 8.63814L13.6614 8.48711L13.5988 8.27015L13.598 7.87379L13.6447 7.56671L14.0786 7.54668L16.0262 7.56003L16.0713 7.37228C16.0871 7.30219 16.1122 7.16283 16.1255 7.06019L16.1489 6.86243Z" fill="#F5F5F5"/>
<path fill-rule="evenodd" clip-rule="evenodd" d="M18.4543 6.43539C18.5628 6.46794 18.5745 6.46794 18.5853 6.46794C18.5945 6.46794 18.6821 6.46377 18.6821 6.34277C18.6821 6.32441 18.6971 6.23262 18.7222 6.11079C18.7664 5.89384 18.7664 5.88466 18.7664 5.87548C18.7664 5.80288 18.703 5.78035 18.5812 5.74447C18.5089 5.72282 18.4353 5.7061 18.3609 5.6944L18.2632 5.68188L18.1406 5.70358C18.0763 5.71526 17.982 5.73946 17.9261 5.75949C17.8569 5.78647 17.7904 5.82 17.7275 5.85962C17.6611 5.90432 17.5985 5.95457 17.5406 6.00982C17.5156 6.03402 17.483 6.06907 17.4505 6.10829C17.4672 6.01483 17.4839 5.92972 17.488 5.91219L17.5314 5.77034H16.6836V5.89717C16.6836 5.91553 16.6686 6.02484 16.6419 6.18422L16.5568 6.71494C16.5326 6.86347 16.4917 7.12215 16.4633 7.2882C16.4358 7.45509 16.3941 7.69375 16.3707 7.81808L16.2781 8.3079C16.22 8.60854 16.1607 8.90894 16.1003 9.20911C16.0745 9.33345 16.0745 9.35097 16.0745 9.37183V9.45861H16.9632L16.9798 9.22497C16.9857 9.14319 17.0065 8.97463 17.0241 8.85697L17.1109 8.31291C17.1392 8.13768 17.1918 7.84562 17.2277 7.66287C17.2661 7.47095 17.3053 7.30156 17.3145 7.27235C17.3284 7.23687 17.3382 7.19991 17.3437 7.1622C17.347 7.15052 17.3654 7.10129 17.3979 7.03119C17.4374 6.95103 17.4811 6.87304 17.5289 6.79755L17.5923 6.69825L17.7884 6.51717L18.0129 6.40869L18.3684 6.41119L18.4543 6.43539ZM21.3315 6.2902C21.3432 6.21343 21.3649 6.0891 21.3782 6.01149C21.4083 5.8446 21.4033 5.8179 21.3716 5.78619C21.3515 5.767 21.3432 5.75865 21.1738 5.73946C21.0962 5.73028 20.8859 5.71443 20.7065 5.70358L20.3719 5.68606L19.9046 5.72277L19.5516 5.79787L19.4423 5.84127C19.3194 5.89121 19.2028 5.95564 19.0952 6.03319C19.0301 6.08648 18.9677 6.14301 18.9083 6.20258L18.7681 6.34277L18.6955 6.44791C18.6538 6.50966 18.5828 6.63566 18.5369 6.72829L18.4518 6.90185L18.3901 7.07959C18.3559 7.17973 18.3066 7.34161 18.2833 7.44174L18.2374 7.63116L18.2057 7.95994V8.39385L18.2432 8.66088L18.3517 8.9279L18.481 9.12567L18.6679 9.30925L18.9016 9.43441L19.0318 9.4703C19.1085 9.49199 19.2128 9.51536 19.2704 9.5237C19.3288 9.53205 19.4615 9.53955 19.5658 9.54039L19.7577 9.54289L19.973 9.51786C20.0915 9.50284 20.2484 9.47948 20.3235 9.46612C20.3986 9.4511 20.5196 9.42273 20.5913 9.40104C20.7407 9.36015 20.7591 9.34346 20.7666 9.33678C20.7858 9.32176 20.8041 9.30591 20.8417 9.11649L20.8901 8.85364C20.9101 8.73181 20.9059 8.7051 20.8759 8.67006L20.8467 8.64335H20.8108C20.7774 8.64335 20.7507 8.66004 20.7382 8.66922C20.7257 8.6784 20.6606 8.7051 20.5722 8.73765L20.4228 8.79439L19.9789 8.88284L19.5984 8.86949L19.4031 8.8019L19.2546 8.67173L19.1544 8.48815L19.1044 8.23781V8.05673L19.1027 7.88817L19.1669 7.46177L19.202 7.34328L19.2521 7.17138C19.2579 7.14635 19.2879 7.07125 19.3155 7.00699C19.3447 6.94024 19.3981 6.83677 19.4323 6.77585L19.4849 6.68072L19.6284 6.52718L19.7786 6.43039L19.8879 6.39701C19.9615 6.3749 20.0365 6.35789 20.1124 6.34611L20.2209 6.32775L20.5805 6.34444L21.0061 6.42872L21.0962 6.4621C21.2013 6.50132 21.2013 6.50132 21.2197 6.50132C21.299 6.50215 21.3056 6.45292 21.3315 6.2902Z" fill="#F5F5F5"/>
<path d="M23.5763 7.59203L23.568 7.6446C23.5337 7.83718 23.482 8.02626 23.4136 8.20952C23.3802 8.29547 23.3669 8.33469 23.361 8.35471L23.3084 8.44817L23.2525 8.54247L23.1582 8.63509C23.131 8.66441 23.1018 8.69174 23.0706 8.71687C23.0392 8.73073 23.0093 8.74778 22.9813 8.76777L22.9288 8.80365L22.6784 8.88209L22.4323 8.89544L22.3555 8.87625C22.3049 8.86227 22.2557 8.84355 22.2086 8.82034L22.1469 8.78946L22.1169 8.75275C22.0921 8.72022 22.0698 8.68591 22.0501 8.65011L22.0217 8.59837L22.0092 8.30632L22.0342 8.2212C22.0484 8.17197 22.0835 8.08268 22.111 8.02677L22.1586 7.92831L22.3422 7.7464L22.5291 7.65461L22.7894 7.59203H23.5763ZM24.334 5.92312L24.1003 5.79879L23.7499 5.71868L23.3018 5.6853L23.0197 5.70283C22.8564 5.71293 22.6933 5.7274 22.5307 5.74622L22.338 5.76958L21.9908 5.77209L21.9575 5.93731C21.9367 6.03007 21.9142 6.12243 21.8899 6.21434C21.834 6.42796 21.8315 6.44883 21.8665 6.48471L21.8957 6.51391H21.9341C21.9425 6.51391 21.9692 6.51391 22.1177 6.47303C22.2045 6.4505 22.3897 6.41128 22.5224 6.38958L22.7652 6.34702L23.2025 6.327L23.4837 6.37623L23.6481 6.45717L23.7298 6.57983V6.79345L23.6865 7.00791L22.5416 7.01292L22.3205 7.07133C22.2238 7.09677 22.1288 7.12798 22.0359 7.16479C22.01 7.17814 21.985 7.18815 21.9883 7.18982C21.9666 7.18982 21.9483 7.18982 21.7981 7.28328L21.6537 7.37507L21.5528 7.47687C21.4912 7.53855 21.4346 7.60495 21.3834 7.67547C21.3371 7.74898 21.2966 7.82598 21.2624 7.90578L21.1998 8.05598L21.1472 8.3664L21.1489 8.69183L21.1973 8.94968L21.2532 9.05816C21.2816 9.10989 21.3308 9.18333 21.3658 9.22338L21.4226 9.29013L21.6462 9.43116L21.7839 9.47288C21.8507 9.49124 21.9508 9.5146 22.0084 9.52295L22.116 9.53964L22.5983 9.52462L22.9021 9.44618L22.9947 9.40279C23.156 9.32659 23.3012 9.22039 23.4228 9.08987C23.4158 9.14831 23.4119 9.20708 23.4111 9.26594V9.45786H24.2013L24.223 8.90211L24.2664 8.59003C24.3196 8.22715 24.3792 7.86522 24.445 7.50441L24.5393 6.98872L24.586 6.7292L24.5885 6.30613L24.4842 6.07249L24.334 5.92312Z" fill="#F5F5F5"/>
<path fill-rule="evenodd" clip-rule="evenodd" d="M27.1069 6.46211L27.1736 6.45711L27.2462 6.41038L27.2479 6.31024C27.2479 6.29021 27.2646 6.19092 27.2871 6.07993L27.3414 5.81792L27.2279 5.77285L27.0944 5.72863L27.0093 5.70109L26.6788 5.69775L26.3859 5.79789L26.1998 5.91054L26.0138 6.10079C26.0288 6.02486 26.0455 5.92556 26.0471 5.89719L26.0488 5.77119H25.3353L25.2486 5.77536V5.86131C25.2107 6.12028 25.1709 6.37897 25.1292 6.63735C25.1017 6.80841 25.0566 7.08628 25.0283 7.25401C25.0007 7.4209 24.959 7.65872 24.9356 7.78472L24.843 8.27371L24.6094 9.45863H25.539L25.5381 9.15823L25.5807 8.87868C25.6049 8.72515 25.6433 8.48149 25.6675 8.33796C25.6917 8.19443 25.7209 8.01085 25.7334 7.93242C25.7459 7.85398 25.7776 7.68542 25.8051 7.55691C25.8343 7.42173 25.8677 7.28822 25.8794 7.25484C25.8819 7.24566 25.9103 7.16806 25.9103 7.14469C25.9128 7.13218 25.9353 7.07794 25.9729 6.99699L26.0338 6.86432L26.2107 6.63067L26.3008 6.56225C26.3509 6.52386 26.4343 6.47212 26.4844 6.44876L26.5628 6.40954L26.9508 6.41288L27.1069 6.46211Z" fill="#F5F5F5"/>
<path d="M27.821 7.2446C27.8243 7.22792 27.8435 7.17952 27.8652 7.13112C27.8928 7.06937 27.9378 6.97424 27.967 6.91917C27.9929 6.8691 28.0446 6.78566 28.0805 6.73809C28.1564 6.6314 28.2511 6.53949 28.36 6.4669L28.4185 6.42935L28.6705 6.34173H29.202L29.3514 6.38262C29.4198 6.40097 29.4932 6.4235 29.5308 6.43602C29.5224 6.48192 29.5057 6.57204 29.4907 6.66132C29.4715 6.77314 29.4331 6.98509 29.4056 7.13362L29.3122 7.63179C29.2902 7.74871 29.2652 7.86501 29.2371 7.98059L29.1786 8.19421C29.1418 8.31224 29.0887 8.42457 29.0209 8.52799C28.9919 8.56896 28.9592 8.60722 28.9233 8.64231C28.8949 8.66818 28.8323 8.71741 28.7856 8.74745L28.7022 8.80253L28.456 8.88013L28.2315 8.89515L28.1448 8.88013C28.094 8.86976 28.0442 8.85467 27.9962 8.83507L27.9253 8.80419L27.8101 8.71074L27.7209 8.53967L27.6783 8.35025L27.6816 7.92301L27.7325 7.54751L27.7743 7.414C27.8393 7.21039 27.821 7.2446 27.821 7.2446ZM29.8729 4.24976L29.8537 4.43334C29.8487 4.49091 29.8203 4.68033 29.7936 4.85473L29.6927 5.47974L29.6401 5.79516L29.5133 5.76095L29.338 5.71756L28.8841 5.68418L28.4994 5.72089L28.1448 5.81269L27.811 5.97707L27.5623 6.16316L27.4597 6.27247C27.4021 6.33505 27.3178 6.43769 27.2719 6.50361L27.1868 6.62878L27.095 6.81903C27.0416 6.93002 26.9799 7.06937 26.9557 7.13446C26.9166 7.24253 26.8832 7.35255 26.8555 7.46407L26.8021 7.68102L26.7512 8.22008L26.7929 8.66067L26.8146 8.73577C26.828 8.77916 26.8564 8.8576 26.8764 8.9085L26.9114 8.99779L27.0666 9.20974L27.2319 9.34158L27.3328 9.39165C27.3946 9.42252 27.493 9.46007 27.5565 9.47676C27.6216 9.49429 27.7209 9.51431 27.7801 9.52182C27.8385 9.53017 27.9595 9.53684 28.0546 9.53851L28.2224 9.54018L28.3817 9.51348C28.461 9.50096 28.5753 9.47843 28.6279 9.46341C28.6805 9.44839 28.7681 9.41335 28.8298 9.38247L28.9492 9.31738L29.1353 9.15049L29.1252 9.24729L29.1052 9.4559H29.9497V9.15216L29.9997 8.72158C30.0271 8.48839 30.0574 8.25556 30.0907 8.02315C30.1132 7.87545 30.1474 7.6635 30.1666 7.55252C30.1867 7.4407 30.2225 7.2396 30.2451 7.10442C30.2684 6.97007 30.3102 6.73392 30.3385 6.58205L30.5305 5.54232C30.5538 5.41215 30.5972 5.18518 30.6256 5.03664C30.654 4.88895 30.6965 4.68033 30.7182 4.57436C30.7616 4.36574 30.7616 4.3574 30.7608 4.33654V4.24976H29.8729Z" fill="#F5F5F5"/>
</svg>
