<svg width="49" height="35" viewBox="0 0 49 35" fill="none" xmlns="http://www.w3.org/2000/svg">
<g clip-path="url(#clip0_37_588)">
<path d="M42.3244 0.990479H6.12584C3.43491 0.990479 1.25348 3.17191 1.25348 5.86284V28.1394C1.25348 30.8303 3.43491 33.0117 6.12584 33.0117H42.3244C45.0153 33.0117 47.1967 30.8303 47.1967 28.1394V5.86284C47.1967 3.17191 45.0153 0.990479 42.3244 0.990479Z" fill="white"/>
<path d="M42.3244 0.990479H6.12584C3.43491 0.990479 1.25348 3.17191 1.25348 5.86284V28.1394C1.25348 30.8303 3.43491 33.0117 6.12584 33.0117H42.3244C45.0153 33.0117 47.1967 30.8303 47.1967 28.1394V5.86284C47.1967 3.17191 45.0153 0.990479 42.3244 0.990479Z" stroke="#191F2D" stroke-opacity="0.1" stroke-width="0.834452"/>
<path fill-rule="evenodd" clip-rule="evenodd" d="M24.4738 23.725C22.7605 25.1685 20.5909 25.9579 18.3506 25.953C13.1369 25.953 8.91043 21.7766 8.91043 16.6255C8.91043 11.4744 13.1369 7.29714 18.3506 7.29714C20.6871 7.29714 22.8258 8.13577 24.4738 9.52513C26.1871 8.08163 28.3567 7.29222 30.597 7.29714C35.8107 7.29714 40.0372 11.4736 40.0372 16.6255C40.0372 21.7766 35.8107 25.953 30.597 25.953C28.2605 25.953 26.1227 25.1144 24.4738 23.725Z" fill="#ED0006"/>
<path fill-rule="evenodd" clip-rule="evenodd" d="M24.4738 23.7251C26.5032 22.0145 27.7907 19.4678 27.7907 16.6256C27.7907 13.7826 26.5032 11.2367 24.4738 9.52611C26.1871 8.0826 28.3567 7.29319 30.597 7.29812C35.8106 7.29812 40.0371 11.4737 40.0371 16.6256C40.0371 21.7767 35.8106 25.9531 30.597 25.9531C28.3567 25.958 26.1871 25.1686 24.4738 23.7251Z" fill="#F9A000"/>
<path fill-rule="evenodd" clip-rule="evenodd" d="M24.4738 23.7252C26.504 22.0145 27.7908 19.4678 27.7908 16.6256C27.7908 13.7827 26.504 11.2367 24.4738 9.52612C22.4444 11.2367 21.1569 13.7818 21.1569 16.6256C21.1569 19.4678 22.4444 22.0137 24.4738 23.7252Z" fill="#FF5E00"/>
</g>
<defs>
<clipPath id="clip0_37_588">
<rect width="47.5638" height="34.2125" fill="white" transform="translate(0.5)"/>
</clipPath>
</defs>
</svg>
