<svg width="21" height="21" viewBox="0 0 21 21" fill="none" xmlns="http://www.w3.org/2000/svg">
<path d="M14.6192 14.7652C13.9901 14.7652 13.4005 14.5232 12.9551 14.0779L10.5561 11.6788C10.3912 11.514 10.0919 11.514 9.92698 11.6788L7.51811 14.0877C7.07272 14.5331 6.48305 14.7751 5.85395 14.7751H5.37988L8.42771 17.8229C9.37584 18.771 10.9235 18.771 11.8716 17.8229L14.9284 14.7661L14.6192 14.7652Z" fill="#02BDAF"/>
<path d="M5.84403 6.27073C6.47313 6.27073 7.0628 6.51269 7.50819 6.95808L9.91706 9.36694C10.0909 9.5408 10.3714 9.5408 10.5462 9.36694L12.955 6.96793C13.4004 6.52254 13.9901 6.28058 14.6192 6.28058H14.9095L11.8528 3.22379C10.9046 2.27566 9.35696 2.27566 8.40883 3.22379L5.36011 6.27073H5.84403Z" fill="#02BDAF"/>
<path d="M17.434 8.80573L15.5861 6.95786C15.5476 6.97757 15.4992 6.98653 15.4508 6.98653H14.6093C14.1738 6.98653 13.7481 7.16039 13.4488 7.47046L11.0489 9.86947C10.8266 10.0917 10.5264 10.2082 10.2361 10.2082C9.93586 10.2082 9.6455 10.0917 9.42325 9.86947L7.01439 7.4606C6.70521 7.15143 6.27954 6.97668 5.85386 6.97668H4.8188C4.77041 6.97668 4.73188 6.96682 4.69334 6.948L2.83561 8.80573C1.88748 9.75386 1.88748 11.3015 2.83561 12.2497L4.68349 14.0975C4.72202 14.0778 4.76055 14.0689 4.80895 14.0689H5.84401C6.27954 14.0689 6.70521 13.895 7.00453 13.5849L9.4134 11.1761C9.84893 10.7405 10.6133 10.7405 11.048 11.1761L13.447 13.5751C13.7562 13.8842 14.1818 14.059 14.6075 14.059H15.449C15.4974 14.059 15.5359 14.0689 15.5843 14.0877L17.4322 12.2398C18.3821 11.2917 18.3821 9.75386 17.434 8.80573Z" fill="#02BDAF"/>
</svg>
