<svg width="34" height="12" viewBox="0 0 34 12" fill="none" xmlns="http://www.w3.org/2000/svg">
<path fill-rule="evenodd" clip-rule="evenodd" d="M8.70607 11.3724H5.83806L3.68768 2.92778C3.58587 2.53893 3.36891 2.19597 3.05015 2.03408C2.22436 1.60464 1.33805 1.30329 0.421631 1.14039V0.81495H5.04116C5.67868 0.81495 6.15765 1.3031 6.23693 1.87053L7.35259 7.96203L10.2189 0.81495H13.006L8.70607 11.3724ZM14.6006 11.3724H11.8928L14.1225 0.81495H16.8303L14.6006 11.3724ZM20.3342 3.7397C20.4143 3.17144 20.8924 2.84601 21.4498 2.84601C22.3268 2.76423 23.2814 2.92778 24.0783 3.33333L24.5573 1.06028C23.7725 0.74208 22.9342 0.576132 22.0873 0.571289C19.4588 0.571289 17.5463 2.03408 17.5463 4.06347C17.5463 5.60721 18.9014 6.41829 19.8577 6.90645C20.8924 7.39377 21.2904 7.71837 21.2112 8.20569C21.2112 8.93667 20.4143 9.26127 19.619 9.26127C18.6619 9.26127 17.7056 9.01761 16.8311 8.6104L16.3522 10.886C17.3084 11.2907 18.3432 11.4542 19.2994 11.4542C22.2467 11.5343 24.0783 10.0732 24.0783 7.88025C24.0783 5.11905 20.3342 4.95717 20.3342 3.7397ZM33.5569 11.3724L31.4065 0.815784H29.0967C28.8499 0.820112 28.6104 0.900371 28.4107 1.04564C28.2111 1.19092 28.0611 1.39415 27.9811 1.62771L23.9991 11.3741H26.7861L27.3436 9.83037H30.769L31.0877 11.3741L33.5569 11.3724ZM29.4948 3.65793L30.2908 7.63743H28.0603L29.4948 3.65793Z" fill="#172B85"/>
</svg>
